<svg width="44" height="44" viewBox="0 0 44 44" fill="none" xmlns="http://www.w3.org/2000/svg">
<path d="M22 4.4C31.68 4.4 39.6 12.32 39.6 22C39.6 31.68 31.68 39.6 22 39.6C12.32 39.6 4.4 31.68 4.4 22C4.4 12.32 12.32 4.4 22 4.4ZM22 0C9.9 0 0 9.9 0 22C0 34.1 9.9 44 22 44C34.1 44 44 34.1 44 22C44 9.9 34.1 0 22 0Z" fill="white"/>
<path d="M16.72 30.36L13.2 20.02L22 13.64L30.7999 20.02L27.2799 30.36H16.72Z" fill="#15BE65"/>
<path d="M26.1799 0.880005L28.8199 5.50001L21.9999 8.36001L15.1799 5.50001L17.8199 0.880005H26.1799Z" fill="white"/>
<path d="M3.29991 11.4401L8.57991 10.5601L9.01991 17.8201L4.17991 23.3201L0.659912 19.3601L3.29991 11.4401Z" fill="white"/>
<path d="M6.15991 36.52L6.81991 31.24L14.0799 33L17.8199 39.38L12.9799 41.58L6.15991 36.52Z" fill="white"/>
<path d="M31.0199 41.58L26.1799 39.38L29.9199 33L37.1799 31.24L37.8399 36.52L31.0199 41.58Z" fill="white"/>
<path d="M43.34 19.3601L39.82 23.3201L34.98 17.8201L35.42 10.5601L40.7 11.4401L43.34 19.3601Z" fill="white"/>
</svg>
