<svg width="29" height="29" viewBox="0 0 29 29" fill="none" xmlns="http://www.w3.org/2000/svg">
<mask id="mask0_203_24" style="mask-type:alpha" maskUnits="userSpaceOnUse" x="0" y="0" width="29" height="29">
<rect width="28" height="28" transform="matrix(-1 -0.000404588 -0.000404588 1 28.0113 0.0113525)" fill="#C4C4C4"/>
</mask>
<g mask="url(#mask0_203_24)">
<path d="M5.56668 6.69176C5.41664 6.54781 5.29686 6.37535 5.21435 6.18449C5.13184 5.99364 5.08827 5.78823 5.08618 5.58031C5.0841 5.3724 5.12355 5.16616 5.20222 4.97369C5.28088 4.78122 5.39718 4.60639 5.5443 4.45946C5.69142 4.31253 5.86639 4.19645 6.05896 4.11802C6.25153 4.0396 6.45782 4.00041 6.66573 4.00276C6.87365 4.0051 7.079 4.04894 7.26975 4.13169C7.4605 4.21444 7.63281 4.33444 7.77657 4.48465L8.38732 5.0959C9.69697 4.26963 11.2491 3.91423 12.7878 4.08827C14.3265 4.26231 15.7599 4.95541 16.8519 6.05333L19.7078 8.91248L22.5078 8.91361C22.6404 8.91367 22.7675 8.9664 22.8613 9.0602C22.955 9.15401 23.0076 9.28121 23.0076 9.41382C22.9974 12.4275 21.7994 15.3156 19.6733 17.4515L18.5269 18.598C17.4709 19.6539 16.2172 20.4912 14.8374 21.0622C13.4576 21.6332 11.9788 21.9267 10.4855 21.9258C10.3529 21.9257 10.2258 21.873 10.132 21.7792C10.0383 21.6854 9.98567 21.5582 9.98572 21.4255L9.98685 18.6295L7.13001 15.7704C6.49074 15.1346 5.98476 14.3776 5.64167 13.5438C5.29859 12.71 5.12531 11.8162 5.13197 10.9146C5.12764 9.63412 5.49158 8.37941 6.18043 7.30001L5.56668 6.69176Z" fill="white"/>
<path d="M19.2317 19.3053L19.2978 19.2393C19.5725 19.9329 19.5914 20.7016 19.3512 21.4079C19.1111 22.1142 18.6274 22.712 17.9868 23.0943C17.3462 23.4767 16.5904 23.6186 15.8548 23.4947C15.1191 23.3708 14.4515 22.9892 13.9715 22.4181C14.2255 22.3432 14.4795 22.2683 14.7296 22.1764C16.4228 21.5614 17.9599 20.5811 19.2317 19.3053V19.3053Z" fill="white"/>
</g>
</svg>
